<svg width="112" height="45" viewBox="0 0 112 45" fill="none" xmlns="http://www.w3.org/2000/svg">
<path d="M0 34.4277C0 28.5888 4.73205 23.8554 10.5693 23.8554H34.9601C40.7974 23.8554 45.5294 28.5888 45.5294 34.4277C45.5294 40.2666 40.7974 45 34.9601 45H10.5693C4.73205 45 0 40.2666 0 34.4277Z" fill="#004E89"/>
<path d="M13.0668 28.1036L7.14046 39.7052C6.85454 40.2649 7.25368 40.9337 7.87361 40.9337H19.4983C20.1125 40.9337 20.512 40.2761 20.2374 39.717L14.539 28.1155C14.2372 27.5011 13.3781 27.4942 13.0668 28.1036Z" fill="white"/>
<path d="M38.7542 34.1566C38.7542 37.8995 35.7208 40.9337 31.979 40.9337C28.2371 40.9337 25.2038 37.8995 25.2038 34.1566C25.2038 30.4137 28.2371 27.3795 31.979 27.3795C35.7208 27.3795 38.7542 30.4137 38.7542 34.1566Z" fill="#F7C59F"/>
<path d="M0 10.5723C0 4.73338 4.73205 0 10.5693 0H34.9601C40.7974 0 45.5294 4.73338 45.5294 10.5723C45.5294 16.4112 40.7974 21.1446 34.9601 21.1446H10.5693C4.73205 21.1446 0 16.4112 0 10.5723Z" fill="#004E89"/>
<path d="M25.4748 4.57716C25.4748 4.14528 25.8245 3.79518 26.2559 3.79518H37.9731C38.4045 3.79518 38.7542 4.14528 38.7542 4.57716V16.5674C38.7542 16.9993 38.4045 17.3494 37.9731 17.3494H26.2559C25.8245 17.3494 25.4748 16.9993 25.4748 16.5674V4.57716Z" fill="white"/>
<path d="M9.65353 4.09915C9.33603 3.78156 8.82125 3.78156 8.50374 4.09915L7.07911 5.52419C6.7616 5.84178 6.7616 6.3567 7.07911 6.6743L10.9864 10.5827L7.27747 14.2926C6.95996 14.6102 6.95996 15.1252 7.27747 15.4428L8.7021 16.8678C9.01961 17.1854 9.53439 17.1854 9.85189 16.8678L13.5608 13.1578L17.2697 16.8678C17.5872 17.1854 18.102 17.1854 18.4195 16.8678L19.8442 15.4428C20.1617 15.1252 20.1617 14.6102 19.8442 14.2926L16.1352 10.5827L20.0425 6.6743C20.36 6.3567 20.36 5.84178 20.0425 5.52419L18.6179 4.09915C18.3004 3.78156 17.7856 3.78156 17.4681 4.09915L13.5608 8.00753L9.65353 4.09915Z" fill="#F7C59F"/>
<path d="M59.582 21.4571C57.8049 21.4571 56.2803 21.1952 55.0082 20.6714C53.7362 20.1476 52.7728 19.4648 52.118 18.623C51.482 17.7625 51.1453 16.8272 51.1079 15.817C51.1079 15.6673 51.164 15.5364 51.2762 15.4242C51.4072 15.2932 51.5568 15.2277 51.7252 15.2277H55.2608C55.4852 15.2277 55.6629 15.2745 55.7939 15.368C55.9436 15.4429 56.0932 15.5645 56.2429 15.7328C56.486 16.2192 56.8789 16.6214 57.4214 16.9394C57.9639 17.2574 58.6841 17.4164 59.582 17.4164C60.6483 17.4164 61.462 17.2481 62.0232 16.9113C62.5844 16.5746 62.865 16.1163 62.865 15.5364C62.865 15.1248 62.7154 14.7881 62.4161 14.5262C62.1355 14.2643 61.6865 14.0305 61.0692 13.8247C60.4519 13.619 59.5352 13.3851 58.3193 13.1232C56.0745 12.6556 54.3909 11.9728 53.2685 11.0748C52.1648 10.1582 51.6129 8.8581 51.6129 7.17449C51.6129 6.03338 51.931 5.01387 52.567 4.11594C53.203 3.21802 54.1103 2.51652 55.2888 2.01144C56.4673 1.50636 57.8423 1.25382 59.4136 1.25382C61.0411 1.25382 62.4535 1.53442 63.6507 2.09562C64.8479 2.65682 65.7552 3.36768 66.3725 4.22819C67.0086 5.06999 67.3453 5.90244 67.3827 6.72553C67.3827 6.89389 67.3266 7.03419 67.2143 7.14643C67.1021 7.25867 66.9618 7.31479 66.7934 7.31479H63.0895C62.865 7.31479 62.678 7.27738 62.5283 7.20255C62.3974 7.12773 62.2758 7.00613 62.1635 6.83777C62.0513 6.40752 61.7426 6.04274 61.2375 5.74343C60.7512 5.44412 60.1432 5.29447 59.4136 5.29447C58.5718 5.29447 57.9265 5.44412 57.4775 5.74343C57.0285 6.04274 56.8041 6.48234 56.8041 7.06225C56.8041 7.45509 56.9257 7.78246 57.1688 8.04436C57.4307 8.30625 57.8423 8.54944 58.4035 8.77392C58.9834 8.97969 59.8065 9.19482 60.8728 9.4193C62.6125 9.73731 63.9968 10.1395 65.0257 10.6259C66.0732 11.0936 66.8402 11.7109 67.3266 12.4778C67.813 13.2261 68.0561 14.1708 68.0561 15.3119C68.0561 16.5653 67.6914 17.6596 66.9618 18.5949C66.251 19.5116 65.2501 20.2224 63.9594 20.7275C62.6873 21.2139 61.2282 21.4571 59.582 21.4571Z" fill="#004E89"/>
<path d="M74.3721 21.4571C73.3806 21.4571 72.4733 21.27 71.6503 20.8959C70.8459 20.503 70.2098 19.9792 69.7422 19.3245C69.2932 18.6511 69.0687 17.9121 69.0687 17.1078C69.0687 15.817 69.5925 14.7788 70.6401 13.9931C71.7064 13.2074 73.1655 12.6649 75.0175 12.3656L78.525 11.8325V11.4396C78.525 10.7288 78.3753 10.205 78.076 9.86826C77.7767 9.53154 77.2716 9.36318 76.5608 9.36318C76.1305 9.36318 75.7751 9.43801 75.4945 9.58766C75.2139 9.73731 74.9239 9.94309 74.6246 10.205C74.3627 10.4295 74.1663 10.5791 74.0354 10.6539C73.9792 10.8036 73.8763 10.8784 73.7267 10.8784H70.6681C70.4811 10.8784 70.3221 10.8223 70.1911 10.7101C70.0789 10.5791 70.0321 10.4295 70.0508 10.2611C70.0695 9.75602 70.3127 9.19482 70.7804 8.5775C71.2668 7.96018 71.9963 7.42703 72.9691 6.97807C73.9605 6.52911 75.1765 6.30463 76.6169 6.30463C78.9178 6.30463 80.6201 6.81907 81.7238 7.84794C82.8275 8.8581 83.3794 10.2237 83.3794 11.9447V20.475C83.3794 20.662 83.3139 20.8304 83.1829 20.9801C83.052 21.111 82.8836 21.1765 82.6779 21.1765H79.4229C79.2358 21.1765 79.0675 21.111 78.9178 20.9801C78.7869 20.8304 78.7214 20.662 78.7214 20.475V19.4929C78.3098 20.0728 77.7299 20.5498 76.9817 20.9239C76.2521 21.2794 75.3822 21.4571 74.3721 21.4571ZM75.6909 18.2582C76.5514 18.2582 77.2436 17.9776 77.7673 17.4164C78.3098 16.8552 78.5811 16.0321 78.5811 14.9471V14.5543L76.196 14.9752C74.5124 15.2745 73.6706 15.8638 73.6706 16.743C73.6706 17.2106 73.867 17.5848 74.2598 17.8654C74.6527 18.1273 75.1297 18.2582 75.6909 18.2582Z" fill="#004E89"/>
<path d="M88.232 21.1765C88.0449 21.1765 87.8766 21.111 87.7269 20.9801C87.596 20.8304 87.5305 20.662 87.5305 20.475V10.2611H85.3979C85.1922 10.2611 85.0238 10.1956 84.8928 10.0647C84.7619 9.93373 84.6964 9.76537 84.6964 9.5596V7.28673C84.6964 7.08096 84.7619 6.9126 84.8928 6.78165C85.0238 6.65071 85.1922 6.58523 85.3979 6.58523H87.5305V5.68731C87.5305 3.83534 88.0543 2.49781 89.1019 1.67472C90.1681 0.832917 91.6927 0.412016 93.6757 0.412016H95.8643C96.0701 0.412016 96.2385 0.477489 96.3694 0.608436C96.5004 0.739383 96.5658 0.907744 96.5658 1.11352V3.38638C96.5658 3.57345 96.5004 3.74181 96.3694 3.89146C96.2385 4.02241 96.0701 4.08789 95.8643 4.08789H93.9001C93.2828 4.08789 92.8432 4.23754 92.5813 4.53685C92.3194 4.81745 92.1885 5.2477 92.1885 5.82761V6.58523H95.5837C95.7895 6.58523 95.9579 6.65071 96.0888 6.78165C96.2198 6.9126 96.2852 7.08096 96.2852 7.28673V9.5596C96.2852 9.74667 96.2198 9.91503 96.0888 10.0647C95.9579 10.1956 95.7895 10.2611 95.5837 10.2611H92.1885V20.475C92.1885 20.662 92.123 20.8304 91.992 20.9801C91.8611 21.111 91.6927 21.1765 91.487 21.1765H88.232Z" fill="#004E89"/>
<path d="M104.297 21.4571C102.052 21.4571 100.284 20.8491 98.9937 19.6332C97.7029 18.4172 97.0295 16.6494 96.9734 14.3298V13.3477C97.0482 11.1403 97.731 9.4193 99.0218 8.18466C100.331 6.93131 102.08 6.30463 104.269 6.30463C105.859 6.30463 107.197 6.632 108.282 7.28673C109.385 7.92276 110.208 8.80198 110.751 9.92438C111.312 11.0468 111.593 12.3375 111.593 13.7967V14.4701C111.593 14.6572 111.527 14.8255 111.396 14.9752C111.265 15.1061 111.097 15.1716 110.891 15.1716H101.912V15.368C101.949 16.2473 102.164 16.9581 102.557 17.5006C102.95 18.0431 103.521 18.3143 104.269 18.3143C104.737 18.3143 105.12 18.2208 105.419 18.0337C105.719 17.828 105.99 17.5848 106.233 17.3042C106.402 17.0984 106.533 16.9768 106.626 16.9394C106.738 16.8833 106.907 16.8552 107.131 16.8552H110.611C110.779 16.8552 110.919 16.9113 111.031 17.0236C111.162 17.1171 111.228 17.2481 111.228 17.4164C111.228 17.9028 110.947 18.464 110.386 19.1C109.844 19.7361 109.049 20.2879 108.001 20.7556C106.953 21.2232 105.719 21.4571 104.297 21.4571ZM106.654 12.3937V12.3375C106.654 11.4209 106.439 10.7007 106.009 10.1769C105.597 9.63443 105.017 9.36318 104.269 9.36318C103.539 9.36318 102.96 9.63443 102.529 10.1769C102.118 10.7007 101.912 11.4209 101.912 12.3375V12.3937H106.654Z" fill="#004E89"/>
<path d="M52.9598 43.9412C52.7728 43.9412 52.6044 43.8757 52.4547 43.7448C52.3238 43.5951 52.2583 43.4267 52.2583 43.2397V25.0006C52.2583 24.7949 52.3238 24.6265 52.4547 24.4955C52.6044 24.3646 52.7728 24.2991 52.9598 24.2991H55.9342C56.4019 24.2991 56.7199 24.4768 56.8882 24.8323L63.7349 35.6073V25.0006C63.7349 24.7949 63.8004 24.6265 63.9313 24.4955C64.081 24.3646 64.2493 24.2991 64.4364 24.2991H67.8036C68.0094 24.2991 68.1777 24.3646 68.3087 24.4955C68.4396 24.6265 68.5051 24.7949 68.5051 25.0006V43.2116C68.5051 43.4174 68.4396 43.5951 68.3087 43.7448C68.1777 43.8757 68.0094 43.9412 67.8036 43.9412H64.8012C64.3896 43.9412 64.081 43.7635 63.8752 43.408L57.0285 33.0258V43.2397C57.0285 43.4267 56.9631 43.5951 56.8321 43.7448C56.7012 43.8757 56.5328 43.9412 56.327 43.9412H52.9598Z" fill="#004E89"/>
<path d="M77.4493 44.2218C75.2045 44.2218 73.4367 43.6138 72.1459 42.3979C70.8551 41.1819 70.1817 39.4142 70.1256 37.0945V36.1124C70.2004 33.905 70.8832 32.184 72.174 30.9494C73.4834 29.696 75.2325 29.0693 77.4212 29.0693C79.0113 29.0693 80.3488 29.3967 81.4338 30.0514C82.5375 30.6875 83.3606 31.5667 83.9031 32.6891C84.4643 33.8115 84.7449 35.1023 84.7449 36.5614V37.2348C84.7449 37.4219 84.6794 37.5902 84.5485 37.7399C84.4175 37.8708 84.2492 37.9363 84.0434 37.9363H75.0641V38.1327C75.1016 39.012 75.3167 39.7228 75.7095 40.2653C76.1024 40.8078 76.6729 41.0791 77.4212 41.0791C77.8889 41.0791 78.2724 40.9855 78.5717 40.7985C78.871 40.5927 79.1422 40.3495 79.3854 40.0689C79.5538 39.8631 79.6847 39.7415 79.7782 39.7041C79.8905 39.648 80.0588 39.6199 80.2833 39.6199H83.7628C83.9311 39.6199 84.0714 39.676 84.1837 39.7883C84.3146 39.8818 84.3801 40.0128 84.3801 40.1811C84.3801 40.6675 84.0995 41.2287 83.5383 41.8647C82.9958 42.5008 82.2008 43.0526 81.1532 43.5203C80.1056 43.9879 78.871 44.2218 77.4493 44.2218ZM79.8063 35.1584V35.1023C79.8063 34.1856 79.5912 33.4654 79.1609 32.9416C78.7494 32.3991 78.1695 32.1279 77.4212 32.1279C76.6916 32.1279 76.1117 32.3991 75.6815 32.9416C75.2699 33.4654 75.0641 34.1856 75.0641 35.1023V35.1584H79.8063Z" fill="#004E89"/>
<path d="M93.3817 43.9412C89.5094 43.9412 87.5732 42.0986 87.5732 38.4133V33.0258H85.3846C85.1788 33.0258 85.0011 32.9603 84.8514 32.8294C84.7205 32.6984 84.655 32.5301 84.655 32.3243V30.0514C84.655 29.8457 84.7205 29.6773 84.8514 29.5464C85.0011 29.4154 85.1788 29.3499 85.3846 29.3499H87.5732V24.72C87.5732 24.5143 87.6387 24.3459 87.7697 24.2149C87.9193 24.084 88.0877 24.0185 88.2747 24.0185H91.5297C91.7355 24.0185 91.9038 24.084 92.0348 24.2149C92.1657 24.3459 92.2312 24.5143 92.2312 24.72V29.3499H95.7387C95.9445 29.3499 96.1129 29.4154 96.2438 29.5464C96.3935 29.6773 96.4683 29.8457 96.4683 30.0514V32.3243C96.4683 32.5301 96.3935 32.6984 96.2438 32.8294C96.1129 32.9603 95.9445 33.0258 95.7387 33.0258H92.2312V38.0205C92.2312 39.4048 92.7644 40.097 93.8306 40.097H95.9913C96.197 40.097 96.3654 40.1624 96.4964 40.2934C96.6273 40.4243 96.6928 40.5927 96.6928 40.7985V43.2397C96.6928 43.4267 96.6273 43.5951 96.4964 43.7448C96.3654 43.8757 96.197 43.9412 95.9913 43.9412H93.3817Z" fill="#004E89"/>
</svg>
