<svg width="62" height="62" viewBox="0 0 62 62" fill="none" xmlns="http://www.w3.org/2000/svg">
<path d="M31 32.0308C29.282 32.0308 27.8283 31.4362 26.6386 30.247C25.4495 29.0574 24.8549 27.6036 24.8549 25.8857C24.8549 24.1674 25.4495 22.7136 26.6386 21.5244C27.8283 20.3352 29.282 19.7406 31 19.7406C32.7179 19.7406 34.1716 20.3352 35.3613 21.5244C36.5505 22.7136 37.1451 24.1674 37.1451 25.8857C37.1451 27.6036 36.5505 29.0574 35.3613 30.247C34.1716 31.4362 32.7179 32.0308 31 32.0308ZM17.1572 56.8037V38.6977C15.5555 36.9889 14.3114 35.0374 13.4249 32.8433C12.538 30.6487 12.0945 28.3295 12.0945 25.8857C12.0945 20.629 13.9308 16.164 17.6034 12.4905C21.2765 8.81697 25.7407 6.98022 30.9961 6.98022C36.2514 6.98022 40.7167 8.81697 44.392 12.4905C48.0676 16.164 49.9054 20.6282 49.9054 25.8831C49.9054 28.3304 49.462 30.6507 48.575 32.8439C47.6885 35.0376 46.4444 36.9889 44.8428 38.6977V56.8037L31 52.3823L17.1572 56.8037ZM31.0103 41.1771C35.2607 41.1771 38.8703 39.6893 41.839 36.7137C44.8072 33.7386 46.2914 30.1256 46.2914 25.8747C46.2914 21.6243 44.8036 18.0149 41.828 15.0467C38.8529 12.0784 35.2401 10.5943 30.9896 10.5943C26.7392 10.5943 23.1296 12.0819 20.1609 15.057C17.1927 18.0326 15.7086 21.6456 15.7086 25.896C15.7086 30.1465 17.1963 33.7558 20.1719 36.7241C23.1471 39.6928 26.7599 41.1771 31.0103 41.1771Z" fill="#1A659E"/>
</svg>
