<svg width="63" height="62" viewBox="0 0 63 62" fill="none" xmlns="http://www.w3.org/2000/svg">
<path d="M29.6995 22.9645V20.2991C28.0035 19.8983 26.6107 19.0189 25.5209 17.6609C24.4316 16.3029 23.887 14.7215 23.887 12.9166C23.887 10.7888 24.6239 8.98586 26.0976 7.50776C27.5714 6.03009 29.3722 5.29126 31.5 5.29126C33.6278 5.29126 35.4308 6.03009 36.9089 7.50776C38.387 8.98586 39.126 10.7888 39.126 12.9166C39.126 14.7215 38.579 16.3029 37.485 17.6609C36.3914 19.0189 35.0009 19.8983 33.3135 20.2991V22.9645L50.7904 33.0343C51.491 33.4451 52.0324 33.9854 52.4147 34.6554C52.7975 35.3249 52.9889 36.0555 52.9889 36.8473V40.6526C52.9889 41.4444 52.7975 42.175 52.4147 42.8445C52.0324 43.5145 51.491 44.0548 50.7904 44.4656L33.7107 54.312C33.002 54.7094 32.2651 54.9081 31.5 54.9081C30.7349 54.9081 30.0021 54.7094 29.3016 54.312L12.2219 44.4656C11.5132 44.0548 10.9677 43.5145 10.5854 42.8445C10.2026 42.175 10.0112 41.4444 10.0112 40.6526V36.8473C10.0112 36.0555 10.2026 35.3249 10.5854 34.6554C10.9677 33.9854 11.5132 33.4451 12.2219 33.0343L29.6995 22.9645ZM16.3107 34.5346L31.1029 43.0648C31.235 43.1474 31.3674 43.1888 31.5 43.1888C31.6327 43.1888 31.765 43.1474 31.8972 43.0648L46.6649 34.5346L33.3135 26.8091V35.3839H29.6995V26.8091L16.3107 34.5346Z" fill="#1A659E"/>
</svg>
