<svg width="156" height="455" viewBox="0 0 156 455" fill="none" xmlns="http://www.w3.org/2000/svg">
<g opacity="0.7">
<path d="M48.5392 3.99728C50.5046 3.15753 52.78 4.06947 53.6215 6.03416L80.6294 69.0925C81.4709 71.0572 80.5597 73.3307 78.5943 74.1704L69.7755 77.9384C67.8101 78.7781 65.5346 77.8662 64.6932 75.9015L37.6853 12.8431C36.8438 10.8784 37.755 8.60496 39.7204 7.76521L48.5392 3.99728Z" fill="#F7C59F"/>
<path d="M93.2462 21.9148C92.4047 19.9501 90.1293 19.0381 88.1638 19.8779L25.0818 46.8304C23.1164 47.6702 22.2052 49.9436 23.0467 51.9083L26.8223 60.7238C27.6638 62.6885 29.9393 63.6004 31.9047 62.7607L94.9867 35.8081C96.9522 34.9684 97.8633 32.6949 97.0218 30.7302L93.2462 21.9148Z" fill="#F7C59F"/>
</g>
<g opacity="0.5">
<path d="M90.93 156.254C92.6051 154.527 95.3636 154.485 97.0914 156.158L152.546 209.872C154.274 211.545 154.317 214.302 152.642 216.028L145.126 223.774C143.451 225.5 140.692 225.543 138.964 223.869L83.5096 170.156C81.7818 168.482 81.7391 165.726 83.4141 164L90.93 156.254Z" fill="#EFEFD0"/>
<path d="M145.129 155.413C143.401 153.74 140.643 153.782 138.967 155.509L85.2051 210.916C83.5301 212.643 83.5728 215.399 85.3006 217.072L93.0531 224.581C94.7808 226.255 97.5394 226.212 99.2144 224.486L152.977 169.078C154.652 167.352 154.609 164.596 152.881 162.922L145.129 155.413Z" fill="#EFEFD0"/>
</g>
<path opacity="0.3" d="M99.4449 68.7114C100.204 67.1735 102.066 66.542 103.604 67.3009L145.373 87.9135C146.911 88.6724 147.542 90.5344 146.783 92.0723L125.713 134.77C124.954 136.307 123.092 136.939 121.554 136.18L79.7847 115.567C78.2468 114.808 77.6154 112.947 78.3743 111.409L99.4449 68.7114Z" fill="#1A659E"/>
<path opacity="0.5" d="M42.4694 76.1827L13.4613 132.08C12.0618 134.777 14.0155 138 17.0499 138H73.9503C76.9566 138 78.9121 134.831 77.5681 132.138L49.6757 76.2399C48.1986 73.2798 43.9932 73.2464 42.4694 76.1827Z" fill="#EFEFD0"/>
<path opacity="0.7" d="M71 185C71 199.359 59.3594 211 45 211C30.6406 211 19 199.359 19 185C19 170.641 30.6406 159 45 159C59.3594 159 71 170.641 71 185Z" fill="#F7C59F"/>
<rect x="28.2843" y="216" width="85" height="40" rx="20" transform="rotate(45 28.2843 216)" fill="#BAD1E2"/>
<g opacity="0.7">
<path d="M113.58 451.003C111.614 451.842 109.339 450.931 108.497 448.966L81.4894 385.907C80.6479 383.943 81.5591 381.669 83.5245 380.83L92.3433 377.062C94.3087 376.222 96.5841 377.134 97.4256 379.099L124.433 442.157C125.275 444.122 124.364 446.395 122.398 447.235L113.58 451.003Z" fill="#BAD1E2"/>
<path d="M68.8726 433.085C69.7141 435.05 71.9895 435.962 73.9549 435.122L137.037 408.17C139.002 407.33 139.914 405.056 139.072 403.092L135.296 394.276C134.455 392.312 132.18 391.4 130.214 392.239L67.132 419.192C65.1666 420.032 64.2555 422.305 65.0969 424.27L68.8726 433.085Z" fill="#BAD1E2"/>
</g>
<path d="M62.6739 386.289C61.9149 387.827 60.053 388.458 58.5151 387.699L16.746 367.087C15.2081 366.328 14.5767 364.466 15.3356 362.928L36.4062 320.231C37.1652 318.693 39.0271 318.061 40.565 318.82L82.3341 339.433C83.872 340.192 84.5034 342.054 83.7445 343.592L62.6739 386.289Z" fill="#F9D6BC"/>
<path opacity="0.5" d="M119.649 378.817L148.657 322.92C150.057 320.223 148.103 317 145.069 317H88.1684C85.1621 317 83.2066 320.169 84.5507 322.862L112.443 378.76C113.92 381.72 118.126 381.754 119.649 378.817Z" fill="#EFEFD0"/>
<path opacity="0.7" d="M91.1188 270C91.1188 255.641 102.759 244 117.119 244C131.478 244 143.119 255.641 143.119 270C143.119 284.359 131.478 296 117.119 296C102.759 296 91.1188 284.359 91.1188 270Z" fill="#F7C59F"/>
</svg>
